<svg width="32" height="32" viewBox="0 0 32 32" fill="none" xmlns="http://www.w3.org/2000/svg">
<g clip-path="url(#clip0_29_57)">
<rect width="32" height="32" fill="white"/>
<path fill-rule="evenodd" clip-rule="evenodd" d="M21.1737 32.0001L21.1737 18.3687C18.6458 18.3687 16.1627 19.4782 16.1627 23.0152C12.475 23.0152 10.8264 26.1706 10.8264 29.3024L10.8264 32.0001H21.1737ZM14.2972 28.1903C14.2972 28.0079 14.445 27.86 14.6275 27.86L20.2576 27.86C20.4401 27.86 20.588 28.0079 20.588 28.1903C20.588 28.3728 20.4401 28.5206 20.2576 28.5206L14.6275 28.5206C14.445 28.5206 14.2972 28.3728 14.2972 28.1903ZM20.588 30.3154C20.588 30.0296 20.3563 29.7979 20.0705 29.7979L13.7517 29.7979C13.4659 29.7979 13.2342 30.0296 13.2342 30.3154C13.2342 30.6012 13.4659 30.8329 13.7517 30.8329L20.0705 30.8329C20.3563 30.8329 20.588 30.6012 20.588 30.3154ZM16.0109 25.878C16.0109 25.6956 16.1587 25.5477 16.3412 25.5477L20.2576 25.5477C20.4401 25.5477 20.588 25.6956 20.588 25.878C20.588 26.0605 20.4401 26.2084 20.2576 26.2084L16.3412 26.2084C16.1587 26.2084 16.0109 26.0605 16.0109 25.878ZM20.588 23.5658C20.588 23.3833 20.4401 23.2354 20.2576 23.2354H17.4909C17.3084 23.2354 17.1606 23.3833 17.1606 23.5658C17.1606 23.7482 17.3084 23.8961 17.4909 23.8961H20.2576C20.4401 23.8961 20.588 23.7482 20.588 23.5658Z" fill="#FF3300"/>
<path d="M20.588 28.1903C20.588 28.0079 20.4401 27.86 20.2576 27.86L14.6275 27.86C14.445 27.86 14.2972 28.0079 14.2972 28.1903C14.2972 28.3728 14.445 28.5206 14.6275 28.5206L20.2576 28.5206C20.4401 28.5206 20.588 28.3728 20.588 28.1903Z" fill="url(#paint0_linear_29_57)"/>
<path d="M20.588 25.878C20.588 25.6956 20.4401 25.5477 20.2576 25.5477L16.3412 25.5477C16.1587 25.5477 16.0109 25.6956 16.0109 25.878C16.0109 26.0605 16.1587 26.2084 16.3412 26.2084L20.2576 26.2084C20.4401 26.2084 20.588 26.0605 20.588 25.878Z" fill="url(#paint1_linear_29_57)"/>
<path d="M17.1606 23.5658C17.1606 23.3833 17.3084 23.2354 17.4909 23.2354H20.2576C20.4401 23.2354 20.588 23.3833 20.588 23.5658C20.588 23.7482 20.4401 23.8961 20.2576 23.8961H17.4909C17.3084 23.8961 17.1606 23.7482 17.1606 23.5658Z" fill="url(#paint2_linear_29_57)"/>
<path d="M13.2342 30.3154C13.2342 30.0296 13.4659 29.7979 13.7517 29.7979L20.0705 29.7979C20.3563 29.7979 20.588 30.0296 20.588 30.3154C20.588 30.6012 20.3563 30.8329 20.0705 30.8329L13.7517 30.8329C13.4659 30.8329 13.2342 30.6012 13.2342 30.3154Z" fill="url(#paint3_linear_29_57)"/>
<path d="M17.0922 19.1458C14.8842 20.1332 13.0972 21.9325 12.086 24.1781C12.8507 23.0503 13.9814 22.2841 15.6647 22.2841C15.6647 20.7455 16.2533 19.7654 17.0922 19.1458Z" fill="#FF3300"/>
<path fill-rule="evenodd" clip-rule="evenodd" d="M32 10.828L18.491 10.828C18.491 13.3787 19.5906 15.8843 23.0959 15.8843C23.0959 19.6055 26.2229 21.269 29.3266 21.269H32V10.828ZM28.2245 17.7668C28.0437 17.7668 27.8971 17.6202 27.8971 17.4394V11.7463C27.8971 11.5655 28.0437 11.419 28.2245 11.419C28.4053 11.419 28.5518 11.5655 28.5518 11.7463V17.4394C28.5518 17.6202 28.4053 17.7668 28.2245 17.7668ZM30.3305 11.419C30.0472 11.419 29.8176 11.6486 29.8176 11.9318V18.3265C29.8176 18.6097 30.0472 18.8394 30.3305 18.8394C30.6137 18.8394 30.8433 18.6097 30.8433 18.3265V11.9318C30.8433 11.6486 30.6137 11.419 30.3305 11.419ZM25.933 16.0376C25.7522 16.0376 25.6056 15.891 25.6056 15.7102V11.7463C25.6056 11.5655 25.7522 11.419 25.933 11.419C26.1138 11.419 26.2603 11.5655 26.2603 11.7463V15.7102C26.2603 15.891 26.1138 16.0376 25.933 16.0376ZM23.6415 11.419C23.4607 11.419 23.3141 11.5655 23.3141 11.7463V14.5501C23.3141 14.7309 23.4607 14.8774 23.6415 14.8774C23.8223 14.8774 23.9688 14.7309 23.9688 14.5501V11.7463C23.9688 11.5655 23.8223 11.419 23.6415 11.419Z" fill="#FF3300"/>
<path fill-rule="evenodd" clip-rule="evenodd" d="M19.2612 14.9464C20.2398 17.1744 22.0228 18.9776 24.2483 19.998C23.1306 19.2263 22.3713 18.0854 22.3713 16.3869C20.8466 16.3869 19.8752 15.7929 19.2612 14.9464Z" fill="#DA0606"/>
<path d="M19.2612 14.9464C20.2398 17.1744 22.0228 18.9776 24.2483 19.998C23.1306 19.2263 22.3713 18.0854 22.3713 16.3869C20.8466 16.3869 19.8752 15.7929 19.2612 14.9464Z" fill="#FF3300"/>
<path d="M28.2245 11.419C28.0437 11.419 27.8971 11.5655 27.8971 11.7463V17.4394C27.8971 17.6202 28.0437 17.7668 28.2245 17.7668C28.4053 17.7668 28.5518 17.6202 28.5518 17.4394V11.7463C28.5518 11.5655 28.4053 11.419 28.2245 11.419Z" fill="url(#paint4_linear_29_57)"/>
<path d="M25.933 11.419C25.7522 11.419 25.6056 11.5655 25.6056 11.7463V15.7102C25.6056 15.891 25.7522 16.0376 25.933 16.0376C26.1138 16.0376 26.2603 15.891 26.2603 15.7102V11.7463C26.2603 11.5655 26.1138 11.419 25.933 11.419Z" fill="url(#paint5_linear_29_57)"/>
<path d="M23.6415 14.8774C23.4607 14.8774 23.3141 14.7309 23.3141 14.5501V11.7463C23.3141 11.5655 23.4607 11.419 23.6415 11.419C23.8223 11.419 23.9688 11.5655 23.9688 11.7463V14.5501C23.9688 14.7309 23.8223 14.8774 23.6415 14.8774Z" fill="url(#paint6_linear_29_57)"/>
<path d="M30.3305 18.8394C30.0472 18.8394 29.8176 18.6097 29.8176 18.3265V11.9318C29.8176 11.6486 30.0472 11.419 30.3305 11.419C30.6137 11.419 30.8433 11.6486 30.8433 11.9318V18.3265C30.8433 18.6097 30.6137 18.8394 30.3305 18.8394Z" fill="url(#paint7_linear_29_57)"/>
<path fill-rule="evenodd" clip-rule="evenodd" d="M10.8263 -7.24792e-05V13.6313C13.3542 13.6313 15.8373 12.5218 15.8373 8.98477C19.525 8.98477 21.1736 5.82936 21.1736 2.69758V-7.24792e-05H10.8263ZM17.7028 3.80968C17.7028 3.99211 17.555 4.14 17.3725 4.14H11.7424C11.5599 4.14 11.412 3.99211 11.412 3.80968C11.412 3.62724 11.5599 3.47935 11.7424 3.47935H17.3725C17.555 3.47935 17.7028 3.62724 17.7028 3.80968ZM11.412 1.68459C11.412 1.9704 11.6437 2.2021 11.9295 2.2021H18.2483C18.5341 2.2021 18.7658 1.9704 18.7658 1.68459C18.7658 1.39877 18.5341 1.16708 18.2483 1.16708H11.9295C11.6437 1.16708 11.412 1.39877 11.412 1.68459ZM15.9891 6.12195C15.9891 6.30439 15.8413 6.45228 15.6588 6.45228H11.7424C11.5599 6.45228 11.412 6.30439 11.412 6.12195C11.412 5.93952 11.5599 5.79163 11.7424 5.79163H15.6588C15.8413 5.79163 15.9891 5.93952 15.9891 6.12195ZM11.412 8.43423C11.412 8.61666 11.5599 8.76456 11.7424 8.76456H14.5091C14.6916 8.76456 14.8394 8.61666 14.8394 8.43423C14.8394 8.2518 14.6916 8.10391 14.5091 8.10391H11.7424C11.5599 8.10391 11.412 8.2518 11.412 8.43423Z" fill="#FF3300"/>
<path fill-rule="evenodd" clip-rule="evenodd" d="M14.9078 12.8542C17.1158 11.8668 18.9028 10.0675 19.914 7.82192C19.1493 8.94969 18.0186 9.71594 16.3353 9.71594C16.3353 11.2545 15.7467 12.2346 14.9078 12.8542Z" fill="#DA0606"/>
<path d="M14.9078 12.8542C17.1158 11.8668 18.9028 10.0675 19.914 7.82192C19.1493 8.94969 18.0186 9.71594 16.3353 9.71594C16.3353 11.2545 15.7467 12.2346 14.9078 12.8542Z" fill="#FF3300"/>
<path d="M11.412 3.80968C11.412 3.99211 11.5599 4.14 11.7424 4.14H17.3725C17.555 4.14 17.7028 3.99211 17.7028 3.80968C17.7028 3.62724 17.555 3.47935 17.3725 3.47935H11.7424C11.5599 3.47935 11.412 3.62724 11.412 3.80968Z" fill="url(#paint8_linear_29_57)"/>
<path d="M11.412 6.12195C11.412 6.30439 11.5599 6.45228 11.7424 6.45228H15.6588C15.8413 6.45228 15.9891 6.30439 15.9891 6.12195C15.9891 5.93952 15.8413 5.79163 15.6588 5.79163H11.7424C11.5599 5.79163 11.412 5.93952 11.412 6.12195Z" fill="url(#paint9_linear_29_57)"/>
<path d="M14.8394 8.43423C14.8394 8.61666 14.6916 8.76456 14.5091 8.76456H11.7424C11.5599 8.76456 11.412 8.61666 11.412 8.43423C11.412 8.2518 11.5599 8.10391 11.7424 8.10391H14.5091C14.6916 8.10391 14.8394 8.2518 14.8394 8.43423Z" fill="url(#paint10_linear_29_57)"/>
<path d="M18.7658 1.68459C18.7658 1.9704 18.5341 2.2021 18.2483 2.2021H11.9295C11.6437 2.2021 11.412 1.9704 11.412 1.68459C11.412 1.39877 11.6437 1.16708 11.9295 1.16708H18.2483C18.5341 1.16708 18.7658 1.39877 18.7658 1.68459Z" fill="url(#paint11_linear_29_57)"/>
<path fill-rule="evenodd" clip-rule="evenodd" d="M-9.53674e-06 21.4411H13.509C13.509 18.8903 12.4094 16.3847 8.90413 16.3847C8.90413 12.6636 5.77706 11 2.67342 11H-9.53674e-06V21.4411ZM3.77552 14.5023C3.95632 14.5023 4.10288 14.6488 4.10288 14.8296V20.5227C4.10288 20.7035 3.95632 20.8501 3.77552 20.8501C3.59473 20.8501 3.44816 20.7035 3.44816 20.5227V14.8296C3.44816 14.6488 3.59473 14.5023 3.77552 14.5023ZM1.66952 20.8501C1.95276 20.8501 2.18238 20.6205 2.18238 20.3372V13.9425C2.18238 13.6593 1.95276 13.4297 1.66952 13.4297C1.38627 13.4297 1.15666 13.6593 1.15666 13.9425V20.3372C1.15666 20.6205 1.38627 20.8501 1.66952 20.8501ZM6.06703 16.2315C6.24782 16.2315 6.39439 16.3781 6.39439 16.5588V20.5227C6.39439 20.7035 6.24782 20.8501 6.06703 20.8501C5.88623 20.8501 5.73967 20.7035 5.73967 20.5227V16.5588C5.73967 16.3781 5.88623 16.2315 6.06703 16.2315ZM8.35854 20.8501C8.53933 20.8501 8.68589 20.7035 8.68589 20.5227V17.719C8.68589 17.5382 8.53933 17.3916 8.35854 17.3916C8.17774 17.3916 8.03118 17.5382 8.03118 17.719V20.5227C8.03118 20.7035 8.17774 20.8501 8.35854 20.8501Z" fill="#FF3300"/>
<path fill-rule="evenodd" clip-rule="evenodd" d="M12.7388 17.3227C11.7602 15.0946 9.97716 13.2915 7.75172 12.271C8.86937 13.0427 9.62873 14.1837 9.62873 15.8822C11.1534 15.8822 12.1248 16.4761 12.7388 17.3227Z" fill="#DA0606"/>
<path d="M12.7388 17.3227C11.7602 15.0946 9.97716 13.2915 7.75172 12.271C8.86937 13.0427 9.62873 14.1837 9.62873 15.8822C11.1534 15.8822 12.1248 16.4761 12.7388 17.3227Z" fill="#FF3300"/>
<path d="M3.77552 20.8501C3.95632 20.8501 4.10288 20.7035 4.10288 20.5227V14.8296C4.10288 14.6488 3.95632 14.5023 3.77552 14.5023C3.59473 14.5023 3.44816 14.6488 3.44816 14.8296V20.5227C3.44816 20.7035 3.59473 20.8501 3.77552 20.8501Z" fill="url(#paint12_linear_29_57)"/>
<path d="M6.06703 20.8501C6.24782 20.8501 6.39439 20.7035 6.39439 20.5227V16.5588C6.39439 16.3781 6.24782 16.2315 6.06703 16.2315C5.88623 16.2315 5.73967 16.3781 5.73967 16.5588V20.5227C5.73967 20.7035 5.88623 20.8501 6.06703 20.8501Z" fill="url(#paint13_linear_29_57)"/>
<path d="M8.35854 17.3916C8.53933 17.3916 8.68589 17.5382 8.68589 17.719V20.5227C8.68589 20.7035 8.53933 20.8501 8.35854 20.8501C8.17774 20.8501 8.03118 20.7035 8.03118 20.5227V17.719C8.03118 17.5382 8.17774 17.3916 8.35854 17.3916Z" fill="url(#paint14_linear_29_57)"/>
<path d="M1.66952 13.4297C1.95276 13.4297 2.18238 13.6593 2.18238 13.9425V20.3372C2.18238 20.6205 1.95276 20.8501 1.66952 20.8501C1.38627 20.8501 1.15666 20.6205 1.15666 20.3372V13.9425C1.15666 13.6593 1.38627 13.4297 1.66952 13.4297Z" fill="url(#paint15_linear_29_57)"/>
</g>
<defs>
<linearGradient id="paint0_linear_29_57" x1="21.1737" y1="25.1844" x2="10.8264" y2="25.1844" gradientUnits="userSpaceOnUse">
<stop stop-color="white"/>
<stop offset="1" stop-color="#FF3700"/>
</linearGradient>
<linearGradient id="paint1_linear_29_57" x1="21.1737" y1="25.1844" x2="10.8264" y2="25.1844" gradientUnits="userSpaceOnUse">
<stop stop-color="white"/>
<stop offset="0.815" stop-color="#F73D0E"/>
</linearGradient>
<linearGradient id="paint2_linear_29_57" x1="21.1737" y1="25.1844" x2="10.8264" y2="25.1844" gradientUnits="userSpaceOnUse">
<stop stop-color="white"/>
<stop offset="1" stop-color="#FF3300"/>
</linearGradient>
<linearGradient id="paint3_linear_29_57" x1="21.1737" y1="25.1844" x2="10.8264" y2="25.1844" gradientUnits="userSpaceOnUse">
<stop stop-color="white"/>
<stop offset="1" stop-color="#FF3300"/>
</linearGradient>
<linearGradient id="paint4_linear_29_57" x1="25.2455" y1="10.828" x2="25.2455" y2="21.269" gradientUnits="userSpaceOnUse">
<stop stop-color="white"/>
<stop offset="1" stop-color="#FF3700"/>
</linearGradient>
<linearGradient id="paint5_linear_29_57" x1="25.2455" y1="10.828" x2="25.2455" y2="21.269" gradientUnits="userSpaceOnUse">
<stop stop-color="white"/>
<stop offset="0.815" stop-color="#F73D0E"/>
</linearGradient>
<linearGradient id="paint6_linear_29_57" x1="25.2455" y1="10.828" x2="25.2455" y2="21.269" gradientUnits="userSpaceOnUse">
<stop stop-color="white"/>
<stop offset="1" stop-color="#FF3300"/>
</linearGradient>
<linearGradient id="paint7_linear_29_57" x1="25.2455" y1="10.828" x2="25.2455" y2="21.269" gradientUnits="userSpaceOnUse">
<stop stop-color="white"/>
<stop offset="1" stop-color="#FF3300"/>
</linearGradient>
<linearGradient id="paint8_linear_29_57" x1="10.8263" y1="6.81564" x2="21.1736" y2="6.81564" gradientUnits="userSpaceOnUse">
<stop stop-color="white"/>
<stop offset="1" stop-color="#FF3700"/>
</linearGradient>
<linearGradient id="paint9_linear_29_57" x1="10.8263" y1="6.81564" x2="21.1736" y2="6.81564" gradientUnits="userSpaceOnUse">
<stop stop-color="white"/>
<stop offset="0.815" stop-color="#F73D0E"/>
</linearGradient>
<linearGradient id="paint10_linear_29_57" x1="10.8263" y1="6.81564" x2="21.1736" y2="6.81564" gradientUnits="userSpaceOnUse">
<stop stop-color="white"/>
<stop offset="1" stop-color="#FF3300"/>
</linearGradient>
<linearGradient id="paint11_linear_29_57" x1="10.8263" y1="6.81564" x2="21.1736" y2="6.81564" gradientUnits="userSpaceOnUse">
<stop stop-color="white"/>
<stop offset="1" stop-color="#FF3300"/>
</linearGradient>
<linearGradient id="paint12_linear_29_57" x1="6.75448" y1="21.4411" x2="6.75448" y2="11" gradientUnits="userSpaceOnUse">
<stop stop-color="white"/>
<stop offset="1" stop-color="#FF3700"/>
</linearGradient>
<linearGradient id="paint13_linear_29_57" x1="6.75448" y1="21.4411" x2="6.75448" y2="11" gradientUnits="userSpaceOnUse">
<stop stop-color="white"/>
<stop offset="0.815" stop-color="#F73D0E"/>
</linearGradient>
<linearGradient id="paint14_linear_29_57" x1="6.75448" y1="21.4411" x2="6.75448" y2="11" gradientUnits="userSpaceOnUse">
<stop stop-color="white"/>
<stop offset="1" stop-color="#FF3300"/>
</linearGradient>
<linearGradient id="paint15_linear_29_57" x1="6.75448" y1="21.4411" x2="6.75448" y2="11" gradientUnits="userSpaceOnUse">
<stop stop-color="white"/>
<stop offset="1" stop-color="#FF3300"/>
</linearGradient>
<clipPath id="clip0_29_57">
<rect width="32" height="32" fill="white"/>
</clipPath>
</defs>
</svg>
